<svg xmlns="http://www.w3.org/2000/svg" xmlns:xlink="http://www.w3.org/1999/xlink" viewBox="0 0 599.12 426.75">
    <defs>
        <style>
            .cls-1{fill:url(#linear-gradient);}.cls-2{fill:none;}.cls-3{clip-path:url(#clip-path);}.cls-4{isolation:isolate;}.cls-5{fill:url(#linear-gradient-4);}.cls-6{clip-path:url(#clip-path-2);}.cls-7{fill:#bfbfbf;}.cls-8{fill:url(#radial-gradient);}.cls-9{fill:#434444;}.cls-10{fill:url(#radial-gradient-2);}.cls-11{fill:url(#linear-gradient-5);}.cls-12{fill:url(#radial-gradient-3);}.cls-13{fill:url(#radial-gradient-4);}.cls-14{fill:url(#radial-gradient-5);}.cls-15{fill:url(#radial-gradient-6);}.cls-16,.cls-39{fill-opacity:0.43;}.cls-16{fill:url(#radial-gradient-7);}.cls-17{fill:url(#radial-gradient-8);}.cls-18{fill:url(#radial-gradient-9);}.cls-19{fill:url(#radial-gradient-10);}.cls-20{fill:url(#radial-gradient-11);}.cls-21{fill:url(#radial-gradient-12);}.cls-22{fill:url(#radial-gradient-13);}.cls-23{fill:url(#radial-gradient-14);}.cls-24{fill:url(#radial-gradient-15);}.cls-25{fill:url(#radial-gradient-16);}.cls-26{fill:url(#radial-gradient-17);}.cls-27{fill:url(#radial-gradient-18);}.cls-28{fill:url(#radial-gradient-19);}.cls-29{fill:url(#radial-gradient-20);}.cls-30{fill:url(#radial-gradient-21);}.cls-31{fill:url(#radial-gradient-22);}.cls-32{fill:url(#radial-gradient-23);}.cls-33{fill:url(#radial-gradient-24);}.cls-34{fill:url(#radial-gradient-25);}.cls-35{fill:url(#radial-gradient-26);}.cls-36{fill:url(#radial-gradient-27);}.cls-37{opacity:0.69;fill:url(#linear-gradient-6);}.cls-38{fill:url(#radial-gradient-29);}.cls-39{fill:url(#radial-gradient-30);}
        </style>
        <linearGradient id="linear-gradient" x1="266.46" y1="237.07" x2="287.86" y2="242.01" gradientUnits="userSpaceOnUse">
            <stop offset="0" stop-color="#b8b8b8"/>
            <stop offset="1" stop-color="#434344"/>
        </linearGradient>
        <clipPath id="clip-path">
            <path class="cls-1" d="M266.48,222l5.72-.67c.5.13,1.9,2.23,3.74,5.33s4.11,7.19,6.35,11.32,4.45,8.31,6.15,11.55,2.89,5.55,3.11,6l-4.18,3.4c-.24-.46-1.53-3-3.36-6.46s-4.22-8-6.64-12.46-4.88-8.89-6.86-12.23S267,222.17,266.48,222Z"/>
        </clipPath>
        <linearGradient id="linear-gradient-4" x1="284.24" y1="423.24" x2="286.06" y2="394.8" gradientUnits="userSpaceOnUse">
            <stop offset="0" stop-color="#b8b8b8"/>
            <stop offset="0.14" stop-color="#a7a7a7"/>
            <stop offset="1" stop-color="#434444"/>
        </linearGradient>
        <clipPath id="clip-path-2">
            <path class="cls-2" d="M265.56,119.1l5.79,6.94q3.07,3.67,5.87,7.57t5.32,8q2.52,4.11,4.75,8.41t4.14,8.81c.31.74.7,1.61,1.15,2.56s1,1.95,1.53,2.95a33.54,33.54,0,0,0,1.85,2.92,16.52,16.52,0,0,0,2.1,2.45l-3.67-3.46a18.05,18.05,0,0,1-2.26-2.64,35,35,0,0,1-2-3.15c-.61-1.08-1.16-2.17-1.65-3.19s-.91-2-1.25-2.77q-2.07-4.84-4.47-9.5t-5.12-9.09q-2.72-4.44-5.74-8.64T265.56,119.1Z"/>
        </clipPath>
        <radialGradient id="radial-gradient" cx="69.68" cy="158.58" r="107.84" gradientUnits="userSpaceOnUse">
            <stop offset="0.27" stop-color="#434444"/>
            <stop offset="0.5" stop-color="#393a3a"/>
            <stop offset="1" stop-color="#282828"/>
        </radialGradient>
        <radialGradient id="radial-gradient-2" cx="544.98" cy="261.19" r="139.03" gradientUnits="userSpaceOnUse">
            <stop offset="0.27" stop-color="#434444"/>
            <stop offset="0.55" stop-color="#3d3d3d"/>
            <stop offset="0.95" stop-color="#2b2b2b"/>
            <stop offset="1" stop-color="#282828"/>
        </radialGradient>
        <linearGradient id="linear-gradient-5" x1="562.42" y1="93.58" x2="561.26" y2="15.32" gradientUnits="userSpaceOnUse">
            <stop offset="0" stop-color="#fff"/>
            <stop offset="0.05" stop-color="#e9e9e9"/>
            <stop offset="0.17" stop-color="#bababa"/>
            <stop offset="0.3" stop-color="#929292"/>
            <stop offset="0.43" stop-color="#717171"/>
            <stop offset="0.56" stop-color="#575757"/>
            <stop offset="0.69" stop-color="#454545"/>
            <stop offset="0.84" stop-color="#3a3a3a"/>
            <stop offset="1" stop-color="#373737"/>
        </linearGradient>
        <radialGradient id="radial-gradient-3" cx="167.09" cy="236.05" r="130.16" gradientUnits="userSpaceOnUse">
            <stop offset="0" stop-color="#b8b8b8"/>
            <stop offset="0.45" stop-color="#a2a2a2" stop-opacity="0.54"/>
            <stop offset="1" stop-color="#878787" stop-opacity="0"/>
        </radialGradient>
        <radialGradient id="radial-gradient-4" cx="299.56" cy="213.36" r="260.06" gradientUnits="userSpaceOnUse"><stop offset="0.65" stop-color="#b8b8b8"/><stop offset="1" stop-color="#878787"/></radialGradient><radialGradient id="radial-gradient-5" cx="298.46" cy="168.28" r="0.06" xlink:href="#radial-gradient-4"/><radialGradient id="radial-gradient-6" cx="299.56" cy="223.35" r="263.56" xlink:href="#radial-gradient-4"/><radialGradient id="radial-gradient-7" cx="570.59" cy="-2.47" r="28.49" gradientUnits="userSpaceOnUse"><stop offset="0.24" stop-color="#fdfeff"/><stop offset="0.35" stop-color="#fdfeff" stop-opacity="0.83"/><stop offset="0.65" stop-color="#feffff" stop-opacity="0.39"/><stop offset="0.86" stop-color="#fff" stop-opacity="0.11"/><stop offset="0.96" stop-color="#fff" stop-opacity="0"/></radialGradient><radialGradient id="radial-gradient-8" cx="92.07" cy="83.38" r="102.93" gradientUnits="userSpaceOnUse"><stop offset="0.19" stop-color="#fdfeff"/><stop offset="0.29" stop-color="#fdfeff" stop-opacity="0.77"/><stop offset="0.45" stop-color="#feffff" stop-opacity="0.45"/><stop offset="0.58" stop-color="#fff" stop-opacity="0.2"/><stop offset="0.68" stop-color="#fff" stop-opacity="0.06"/><stop offset="0.73" stop-color="#fff" stop-opacity="0"/></radialGradient><radialGradient id="radial-gradient-9" cx="97.78" cy="86.73" r="102.93" gradientTransform="translate(54.28 -1.27) rotate(58.63) scale(1 0.1)" gradientUnits="userSpaceOnUse"><stop offset="0" stop-color="#fdfeff"/><stop offset="0.59" stop-color="#feffff" stop-opacity="0.4"/><stop offset="1" stop-color="#fff" stop-opacity="0"/></radialGradient><radialGradient id="radial-gradient-10" cx="314.43" cy="-54.92" r="0.5" xlink:href="#radial-gradient-8"/><radialGradient id="radial-gradient-11" cx="314.43" cy="-54.92" r="0.5" gradientTransform="translate(0 -49.43) scale(1 0.1)" xlink:href="#radial-gradient-9"/><radialGradient id="radial-gradient-12" cx="398.49" cy="56.77" r="72.26" xlink:href="#radial-gradient-8"/><radialGradient id="radial-gradient-13" cx="398.49" cy="56.77" r="72.26" gradientTransform="matrix(0.7, 0.72, -0.07, 0.07, 125.5, -233.59)" xlink:href="#radial-gradient-9"/><radialGradient id="radial-gradient-14" cx="25.62" cy="324.34" r="68.32" xlink:href="#radial-gradient-8"/><radialGradient id="radial-gradient-15" cx="25.62" cy="324.34" r="68.32" gradientTransform="matrix(0.71, -0.7, 0.07, 0.07, -15.4, 319.24)" xlink:href="#radial-gradient-9"/><radialGradient id="radial-gradient-16" cx="254.3" cy="267.93" r="62.02" xlink:href="#radial-gradient-8"/><radialGradient id="radial-gradient-17" cx="254.3" cy="267.93" r="62.02" gradientTransform="matrix(0.61, -0.79, 0.08, 0.06, 78.54, 453.65)" xlink:href="#radial-gradient-9"/><radialGradient id="radial-gradient-18" cx="266.37" cy="225.43" r="63.08" xlink:href="#radial-gradient-8"/><radialGradient id="radial-gradient-19" cx="266.37" cy="225.43" r="63.08" gradientTransform="translate(235.44 -40.1) rotate(78.52) scale(1 0.1)" xlink:href="#radial-gradient-9"/><radialGradient id="radial-gradient-20" cx="536.46" cy="293.5" r="134.25" xlink:href="#radial-gradient-8"/><radialGradient id="radial-gradient-21" cx="536.46" cy="293.5" r="134.25" gradientTransform="translate(858.43 723.6) rotate(-129.95) scale(1 0.1)" xlink:href="#radial-gradient-9"/><radialGradient id="radial-gradient-22" cx="368.89" cy="112.73" r="306.08" xlink:href="#radial-gradient-8"/><radialGradient id="radial-gradient-23" cx="368.89" cy="112.73" r="306.08" gradientTransform="translate(147.65 -182.66) rotate(51.42) scale(1 0.1)" xlink:href="#radial-gradient-9"/><radialGradient id="radial-gradient-24" cx="563" cy="102.09" r="44.75" xlink:href="#radial-gradient-8"/><radialGradient id="radial-gradient-25" cx="563" cy="102.09" r="44.75" gradientTransform="translate(459.13 -451.34) rotate(78.33) scale(1 0.1)" xlink:href="#radial-gradient-9"/><radialGradient id="radial-gradient-26" cx="283.22" cy="420.26" r="27.31" xlink:href="#radial-gradient-8"/><radialGradient id="radial-gradient-27" cx="283.22" cy="420.26" r="27.31" gradientTransform="translate(116.99 187.13) rotate(46.07) scale(1 0.1)" xlink:href="#radial-gradient-9"/><linearGradient id="linear-gradient-6" x1="68.89" y1="93.23" x2="80.73" y2="113.09" gradientUnits="userSpaceOnUse"><stop offset="0.16" stop-color="#d6d7d8"/><stop offset="0.23" stop-color="#e0e1e2" stop-opacity="0.75"/><stop offset="0.31" stop-color="#ebecec" stop-opacity="0.48"/><stop offset="0.39" stop-color="#f4f4f4" stop-opacity="0.27"/><stop offset="0.46" stop-color="#fafafa" stop-opacity="0.12"/><stop offset="0.51" stop-color="#fefefe" stop-opacity="0.03"/><stop offset="0.55" stop-color="#fff" stop-opacity="0"/></linearGradient><radialGradient id="radial-gradient-29" cx="58.61" cy="84.65" r="72.24" gradientUnits="userSpaceOnUse"><stop offset="0.24" stop-color="#d6d7d8"/><stop offset="0.26" stop-color="#d7d8d9" stop-opacity="0.98"/><stop offset="0.61" stop-color="#eceded" stop-opacity="0.46"/><stop offset="0.85" stop-color="#fafafa" stop-opacity="0.13"/><stop offset="0.96" stop-color="#fff" stop-opacity="0"/></radialGradient><radialGradient id="radial-gradient-30" cx="572.27" cy="0.39" r="14.81" xlink:href="#radial-gradient-7"/></defs><g id="Layer_2" data-name="Layer 2"><g id="Layer_2-2" data-name="Layer 2"><path class="cls-1" d="M266.48,222l5.72-.67c.5.13,1.9,2.23,3.74,5.33s4.11,7.19,6.35,11.32,4.45,8.31,6.15,11.55,2.89,5.55,3.11,6l-4.18,3.4c-.24-.46-1.53-3-3.36-6.46s-4.22-8-6.64-12.46-4.88-8.89-6.86-12.23S267,222.17,266.48,222Z"/><g class="cls-3"><g class="cls-4"><path class="cls-1" d="M266.48,222l5.72-.67c.5.13,1.9,2.23,3.74,5.33s4.11,7.19,6.35,11.32,4.45,8.31,6.15,11.55,2.89,5.55,3.11,6l-4.18,3.4c-.24-.46-1.53-3-3.36-6.46s-4.22-8-6.64-12.46-4.88-8.89-6.86-12.23-3.5-5.61-4-5.75"/></g></g><path class="cls-5" d="M287.37,258.93l4.18-3.4c0,1.37.07,8.92.15,20.18s.19,26.24.29,42.47.21,33.7.29,50,.13,31.31.13,42.69l-4.12,15.91c0-12.29-.05-28.54-.14-46.1s-.19-36.44-.3-54-.23-33.69-.32-45.85S287.38,260.41,287.37,258.93Z"/><g class="cls-4"><g class="cls-6"><g class="cls-4"><path class="cls-7" d="M265.56,119.1l5.79,6.94q3.07,3.67,5.87,7.57t5.32,8q2.52,4.11,4.75,8.41t4.14,8.81c.31.74.7,1.61,1.15,2.56s1,1.95,1.53,2.95a33.54,33.54,0,0,0,1.85,2.92,16.52,16.52,0,0,0,2.1,2.45l-3.67-3.46a18.05,18.05,0,0,1-2.26-2.64,35,35,0,0,1-2-3.15c-.61-1.08-1.16-2.17-1.65-3.19s-.91-2-1.25-2.77q-2.07-4.84-4.47-9.5t-5.12-9.09q-2.72-4.44-5.74-8.64t-6.34-8.18"/></g></g></g><path class="cls-8" d="M228.78,301.61c-67.3,54.51-173.86,2.59-173.31-83.77-4.21-84.77,101.19-143.12,169-91.13C150,61.52,29.87,119.29,32.58,218.2c.75,99.91,123.58,151.38,196.24,83.38Z"/><path class="cls-9" d="M229.15,301.2l0,0,0,0Z"/><path class="cls-10" d="M565.82,207.47c.6-82.52-89-140.29-163.79-105.82-82.91,36-94.21,152-19.06,202.83C459.44,358,567.09,300.68,565.82,207.47Zm-16.47,3.3c-.74,83.8-98.24,135.19-167.66,88-71.17-46.26-61.59-155.25,16-188.94C468.11,77.47,552,133.14,549.35,210.77Z"/><path class="cls-11" d="M554.89,17.76a8.77,8.77,0,0,0-1.18,1.33,8.2,8.2,0,0,0-.89,1.55,8.56,8.56,0,0,0-.57,1.73,8.93,8.93,0,0,0-.2,1.87v91.92l16.1-7.75.54-99.26a9.61,9.61,0,0,1,.21-2,10,10,0,0,1,.61-1.87,9.57,9.57,0,0,1,1-1.67,8.74,8.74,0,0,1,1.29-1.43Z"/><path class="cls-12" d="M449.3,88.82c-1.3,0-2.6,0-3.91.06a119.53,119.53,0,0,0,3.91,239c1.3,0,2.6,0,3.91-.06a119.53,119.53,0,0,0-3.91-239ZM565.77,212.16c-1.95,61-51.64,110.71-112.66,112.65A116.53,116.53,0,0,1,332.83,204.53c1.95-61,51.64-110.7,112.66-112.65A116.53,116.53,0,0,1,565.77,212.16Z"/><path class="cls-13" d="M568.25,25v80.84A4.15,4.15,0,0,1,561,108.6a149.33,149.33,0,0,0-111.68-50c-65.41,0-120.17,38.57-140.25,95.75-1.57,4.47-5.86,13.84-10.6,13.94h0c-4.86-.1-9.3-9.28-11.2-13.76-22.52-52.89-75.36-88.27-137.48-88.27A149.77,149.77,0,0,0,0,219.61C1.91,299.06,66.7,363.85,146.15,365.73c36.3.86,73.87-14.18,100.36-35a10.81,10.81,0,0,1,4.43-2.2c7.2-1.5,6.78,7.34,7.31,14,.05.58.13,56.85.13,84.18,0,.05,29.83,0,29.83,0a.11.11,0,0,0,.11-.11v-5.73c0-47.46-.93-161.95-.93-161.95s-18.78-36.33-20.9-36.9c0,0,.22,11.28.06,11.76-.53,1.52-4.14,14.19-5.82,18.18-.33.77-.64,1.54-.91,2.33a116.56,116.56,0,0,1-114.35,78.16c-61.59-2.22-111.27-53-112.22-114.63A116.53,116.53,0,0,1,149.77,99.48c1.35,0,2.69,0,4,.07,40.36,1.37,76.77,24.69,96.5,59.92L297.93,242h0l19.44,37.27c.35.65.72,1.28,1.08,1.93l1.8,3.21,0,0A149.67,149.67,0,0,0,454,358c81.08-2.48,144.94-70.28,145.08-151.4,0-5.21,0-10.26,0-15.46V3.57c-1,.74-15,11-22.59,11.66C569.58,15.78,568.43,23.18,568.25,25Zm-2.48,187.14c-1.95,61-51.64,110.71-112.66,112.65A116.53,116.53,0,0,1,332.83,204.53c1.95-61,51.64-110.7,112.66-112.65A116.53,116.53,0,0,1,565.77,212.16Z"/><ellipse class="cls-2" cx="449.3" cy="208.35" rx="116.48" ry="116.57" transform="translate(-15.73 378.73) rotate(-45)"/><path class="cls-14" d="M298.53,168.28h0Z"/><path class="cls-15" d="M577.78,0a9.52,9.52,0,0,0-9.53,9.52V26.19c.18-1.84,1.33-9.24,8.28-9.79,7.64-.6,21.6-10.92,22.59-11.66V0Z"/><path class="cls-16" d="M577.78,0a9.52,9.52,0,0,0-9.53,9.52V25c.18-1.84,7.44-10.11,14.38-10.66,7.65-.61,14.28,12.08,15.28,11.34L599.12,0Z"/><path class="cls-17" d="M577.78,0a9.52,9.52,0,0,0-9.53,9.52v96.34A4.15,4.15,0,0,1,561,108.6a149.33,149.33,0,0,0-111.68-50c-65.41,0-120.17,38.57-140.25,95.75-1.57,4.47-5.86,13.84-10.6,13.94-4.86-.1-9.3-9.28-11.2-13.76-22.52-52.89-75.36-88.27-137.48-88.27A149.77,149.77,0,0,0,0,219.61C1.91,299.06,66.7,363.85,146.15,365.73c36.3.86,73.87-14.18,100.36-35a10.81,10.81,0,0,1,4.43-2.2c7.2-1.5,6.78,7.34,7.31,14,.05.58.13,56.85.13,84.18,0,.05,29.83,0,29.83,0a.11.11,0,0,0,.11-.11v-5.73c0-47.46-.93-161.95-.93-161.95s-18.78-36.33-20.9-36.9c0,0,.22,11.28.06,11.76-.53,1.52-4.14,14.19-5.82,18.18-.33.77-.64,1.54-.91,2.33a116.56,116.56,0,0,1-114.35,78.16c-61.59-2.22-111.27-53-112.22-114.63A116.53,116.53,0,0,1,149.77,99.48c1.35,0,2.69,0,4,.07,40.36,1.37,76.77,24.69,96.5,59.92L297.93,242h0l19.44,37.27c.35.65.72,1.28,1.08,1.93l1.8,3.21,0,0A149.67,149.67,0,0,0,454,358c81.08-2.48,144.94-70.28,145.08-151.4,0-5.21,0-10.26,0-15.46V0Zm19.34,191.18c0,2.88,0,5.72,0,8.56,0,2.29,0,4.58,0,6.89a150.21,150.21,0,0,1-41.64,103.82A145.68,145.68,0,0,1,453.93,356c-1.54,0-3.09.07-4.62.07h0A147.69,147.69,0,0,1,322,283.37l-.92-1.55-1.3-2.32-.66-1.18-19.42-37.24L252,158.47c-20.27-36.2-57.88-59.55-98.16-60.92-1.36,0-2.74-.07-4.1-.07a118.53,118.53,0,0,0-4.37,237c1.45.06,2.92.08,4.37.08A118.62,118.62,0,0,0,261.71,255c.23-.65.5-1.35.86-2.2,1.26-3,3.51-10.49,4.85-15,.47-1.59.88-2.95,1-3.34s.21-.61.15-6c4.29,7.23,11.65,21,16.8,31,.08,9.28.93,115.77.93,161.46v3.84H281.1c-12.61,0-18.24,0-20.72,0,0-24.6-.08-81.63-.14-82.36s-.1-1.55-.15-2.34c-.35-5.76-.84-13.64-7.64-13.64a9.47,9.47,0,0,0-1.92.21,12.83,12.83,0,0,0-5.26,2.58c-27.57,21.68-63.52,34.61-96.16,34.61-1,0-2,0-2.92,0a147.77,147.77,0,0,1,3.58-295.49,150.89,150.89,0,0,1,82.5,24,140.88,140.88,0,0,1,53.14,63.07c4.19,9.86,8.57,14.9,13,15,6.86-.14,11.64-12.76,12.53-15.29,20.14-57.35,74.45-94.41,138.36-94.41a148,148,0,0,1,110.19,49.35,6.15,6.15,0,0,0,10.76-4.07V9.52A7.54,7.54,0,0,1,577.78,2h19.34Z"/><path class="cls-18" d="M449.3,89.82c-1.29,0-2.58,0-3.88.06a118.53,118.53,0,0,0,3.88,237c1.29,0,2.58,0,3.88-.06a118.53,118.53,0,0,0-3.88-237ZM565.77,212.16c-1.95,61-51.64,110.71-112.66,112.65A116.53,116.53,0,0,1,332.83,204.53c1.95-61,51.64-110.7,112.66-112.65A116.53,116.53,0,0,1,565.77,212.16Z"/><path class="cls-19" d="M577.78,0a9.52,9.52,0,0,0-9.53,9.52v96.34A4.15,4.15,0,0,1,561,108.6a149.33,149.33,0,0,0-111.68-50c-65.41,0-120.17,38.57-140.25,95.75-1.57,4.47-5.86,13.84-10.6,13.94-4.86-.1-9.3-9.28-11.2-13.76-22.52-52.89-75.36-88.27-137.48-88.27A149.77,149.77,0,0,0,0,219.61C1.91,299.06,66.7,363.85,146.15,365.73c36.3.86,73.87-14.18,100.36-35a10.81,10.81,0,0,1,4.43-2.2c7.2-1.5,6.78,7.34,7.31,14,.05.58.13,56.85.13,84.18,0,.05,29.83,0,29.83,0a.11.11,0,0,0,.11-.11v-5.73c0-47.46-.93-161.95-.93-161.95s-18.78-36.33-20.9-36.9c0,0,.22,11.28.06,11.76-.53,1.52-4.14,14.19-5.82,18.18-.33.77-.64,1.54-.91,2.33a116.56,116.56,0,0,1-114.35,78.16c-61.59-2.22-111.27-53-112.22-114.63A116.53,116.53,0,0,1,149.77,99.48c1.35,0,2.69,0,4,.07,40.36,1.37,76.77,24.69,96.5,59.92L297.93,242h0l19.44,37.27c.35.65.72,1.28,1.08,1.93l1.8,3.21,0,0A149.67,149.67,0,0,0,454,358c81.08-2.48,144.94-70.28,145.08-151.4,0-5.21,0-10.26,0-15.46V0Zm19.34,191.18c0,2.88,0,5.72,0,8.56,0,2.29,0,4.58,0,6.89a150.21,150.21,0,0,1-41.64,103.82A145.68,145.68,0,0,1,453.93,356c-1.54,0-3.09.07-4.62.07h0A147.69,147.69,0,0,1,322,283.37l-.92-1.55-1.3-2.32-.66-1.18-19.42-37.24L252,158.47c-20.27-36.2-57.88-59.55-98.16-60.92-1.36,0-2.74-.07-4.1-.07a118.53,118.53,0,0,0-4.37,237c1.45.06,2.92.08,4.37.08A118.62,118.62,0,0,0,261.71,255c.23-.65.5-1.35.86-2.2,1.26-3,3.51-10.49,4.85-15,.47-1.59.88-2.95,1-3.34s.21-.61.15-6c4.29,7.23,11.65,21,16.8,31,.08,9.28.93,115.77.93,161.46v3.84H281.1c-12.61,0-18.24,0-20.72,0,0-24.6-.08-81.63-.14-82.36s-.1-1.55-.15-2.34c-.35-5.76-.84-13.64-7.64-13.64a9.47,9.47,0,0,0-1.92.21,12.83,12.83,0,0,0-5.26,2.58c-27.57,21.68-63.52,34.61-96.16,34.61-1,0-2,0-2.92,0a147.77,147.77,0,0,1,3.58-295.49,150.89,150.89,0,0,1,82.5,24,140.88,140.88,0,0,1,53.14,63.07c4.19,9.86,8.57,14.9,13,15,6.86-.14,11.64-12.76,12.53-15.29,20.14-57.35,74.45-94.41,138.36-94.41a148,148,0,0,1,110.19,49.35,6.15,6.15,0,0,0,10.76-4.07V9.52A7.54,7.54,0,0,1,577.78,2h19.34Z"/><path class="cls-20" d="M449.3,89.82c-1.29,0-2.58,0-3.88.06a118.53,118.53,0,0,0,3.88,237c1.29,0,2.58,0,3.88-.06a118.53,118.53,0,0,0-3.88-237ZM565.77,212.16c-1.95,61-51.64,110.71-112.66,112.65A116.53,116.53,0,0,1,332.83,204.53c1.95-61,51.64-110.7,112.66-112.65A116.53,116.53,0,0,1,565.77,212.16Z"/><path class="cls-21" d="M577.78,0a9.52,9.52,0,0,0-9.53,9.52v96.34A4.15,4.15,0,0,1,561,108.6a149.33,149.33,0,0,0-111.68-50c-65.41,0-120.17,38.57-140.25,95.75-1.57,4.47-5.86,13.84-10.6,13.94-4.86-.1-9.3-9.28-11.2-13.76-22.52-52.89-75.36-88.27-137.48-88.27A149.77,149.77,0,0,0,0,219.61C1.91,299.06,66.7,363.85,146.15,365.73c36.3.86,73.87-14.18,100.36-35a10.81,10.81,0,0,1,4.43-2.2c7.2-1.5,6.78,7.34,7.31,14,.05.58.13,56.85.13,84.18,0,.05,29.83,0,29.83,0a.11.11,0,0,0,.11-.11v-5.73c0-47.46-.93-161.95-.93-161.95s-18.78-36.33-20.9-36.9c0,0,.22,11.28.06,11.76-.53,1.52-4.14,14.19-5.82,18.18-.33.77-.64,1.54-.91,2.33a116.56,116.56,0,0,1-114.35,78.16c-61.59-2.22-111.27-53-112.22-114.63A116.53,116.53,0,0,1,149.77,99.48c1.35,0,2.69,0,4,.07,40.36,1.37,76.77,24.69,96.5,59.92L297.93,242h0l19.44,37.27c.35.65.72,1.28,1.08,1.93l1.8,3.21,0,0A149.67,149.67,0,0,0,454,358c81.08-2.48,144.94-70.28,145.08-151.4,0-5.21,0-10.26,0-15.46V0Zm19.34,191.18c0,2.88,0,5.72,0,8.56,0,2.29,0,4.58,0,6.89a150.21,150.21,0,0,1-41.64,103.82A145.68,145.68,0,0,1,453.93,356c-1.54,0-3.09.07-4.62.07h0A147.69,147.69,0,0,1,322,283.37l-.92-1.55-1.3-2.32-.66-1.18-19.42-37.24L252,158.47c-20.27-36.2-57.88-59.55-98.16-60.92-1.36,0-2.74-.07-4.1-.07a118.53,118.53,0,0,0-4.37,237c1.45.06,2.92.08,4.37.08A118.62,118.62,0,0,0,261.71,255c.23-.65.5-1.35.86-2.2,1.26-3,3.51-10.49,4.85-15,.47-1.59.88-2.95,1-3.34s.21-.61.15-6c4.29,7.23,11.65,21,16.8,31,.08,9.28.93,115.77.93,161.46v3.84H281.1c-12.61,0-18.24,0-20.72,0,0-24.6-.08-81.63-.14-82.36s-.1-1.55-.15-2.34c-.35-5.76-.84-13.64-7.64-13.64a9.47,9.47,0,0,0-1.92.21,12.83,12.83,0,0,0-5.26,2.58c-27.57,21.68-63.52,34.61-96.16,34.61-1,0-2,0-2.92,0a147.77,147.77,0,0,1,3.58-295.49,150.89,150.89,0,0,1,82.5,24,140.88,140.88,0,0,1,53.14,63.07c4.19,9.86,8.57,14.9,13,15,6.86-.14,11.64-12.76,12.53-15.29,20.14-57.35,74.45-94.41,138.36-94.41a148,148,0,0,1,110.19,49.35,6.15,6.15,0,0,0,10.76-4.07V9.52A7.54,7.54,0,0,1,577.78,2h19.34Z"/><path class="cls-22" d="M449.3,89.82c-1.29,0-2.58,0-3.88.06a118.53,118.53,0,0,0,3.88,237c1.29,0,2.58,0,3.88-.06a118.53,118.53,0,0,0-3.88-237ZM565.77,212.16c-1.95,61-51.64,110.71-112.66,112.65A116.53,116.53,0,0,1,332.83,204.53c1.95-61,51.64-110.7,112.66-112.65A116.53,116.53,0,0,1,565.77,212.16Z"/><path class="cls-23" d="M577.78,0a9.52,9.52,0,0,0-9.53,9.52v96.34A4.15,4.15,0,0,1,561,108.6a149.33,149.33,0,0,0-111.68-50c-65.41,0-120.17,38.57-140.25,95.75-1.57,4.47-5.86,13.84-10.6,13.94-4.86-.1-9.3-9.28-11.2-13.76-22.52-52.89-75.36-88.27-137.48-88.27A149.77,149.77,0,0,0,0,219.61C1.91,299.06,66.7,363.85,146.15,365.73c36.3.86,73.87-14.18,100.36-35a10.81,10.81,0,0,1,4.43-2.2c7.2-1.5,6.78,7.34,7.31,14,.05.58.13,56.85.13,84.18,0,.05,29.83,0,29.83,0a.11.11,0,0,0,.11-.11v-5.73c0-47.46-.93-161.95-.93-161.95s-18.78-36.33-20.9-36.9c0,0,.22,11.28.06,11.76-.53,1.52-4.14,14.19-5.82,18.18-.33.77-.64,1.54-.91,2.33a116.56,116.56,0,0,1-114.35,78.16c-61.59-2.22-111.27-53-112.22-114.63A116.53,116.53,0,0,1,149.77,99.48c1.35,0,2.69,0,4,.07,40.36,1.37,76.77,24.69,96.5,59.92L297.93,242h0l19.44,37.27c.35.65.72,1.28,1.08,1.93l1.8,3.21,0,0A149.67,149.67,0,0,0,454,358c81.08-2.48,144.94-70.28,145.08-151.4,0-5.21,0-10.26,0-15.46V0Zm19.34,191.18c0,2.88,0,5.72,0,8.56,0,2.29,0,4.58,0,6.89a150.21,150.21,0,0,1-41.64,103.82A145.68,145.68,0,0,1,453.93,356c-1.54,0-3.09.07-4.62.07h0A147.69,147.69,0,0,1,322,283.37l-.92-1.55-1.3-2.32-.66-1.18-19.42-37.24L252,158.47c-20.27-36.2-57.88-59.55-98.16-60.92-1.36,0-2.74-.07-4.1-.07a118.53,118.53,0,0,0-4.37,237c1.45.06,2.92.08,4.37.08A118.62,118.62,0,0,0,261.71,255c.23-.65.5-1.35.86-2.2,1.26-3,3.51-10.49,4.85-15,.47-1.59.88-2.95,1-3.34s.21-.61.15-6c4.29,7.23,11.65,21,16.8,31,.08,9.28.93,115.77.93,161.46v3.84H281.1c-12.61,0-18.24,0-20.72,0,0-24.6-.08-81.63-.14-82.36s-.1-1.55-.15-2.34c-.35-5.76-.84-13.64-7.64-13.64a9.47,9.47,0,0,0-1.92.21,12.83,12.83,0,0,0-5.26,2.58c-27.57,21.68-63.52,34.61-96.16,34.61-1,0-2,0-2.92,0a147.77,147.77,0,0,1,3.58-295.49,150.89,150.89,0,0,1,82.5,24,140.88,140.88,0,0,1,53.14,63.07c4.19,9.86,8.57,14.9,13,15,6.86-.14,11.64-12.76,12.53-15.29,20.14-57.35,74.45-94.41,138.36-94.41a148,148,0,0,1,110.19,49.35,6.15,6.15,0,0,0,10.76-4.07V9.52A7.54,7.54,0,0,1,577.78,2h19.34Z"/><path class="cls-24" d="M449.3,89.82c-1.29,0-2.58,0-3.88.06a118.53,118.53,0,0,0,3.88,237c1.29,0,2.58,0,3.88-.06a118.53,118.53,0,0,0-3.88-237ZM565.77,212.16c-1.95,61-51.64,110.71-112.66,112.65A116.53,116.53,0,0,1,332.83,204.53c1.95-61,51.64-110.7,112.66-112.65A116.53,116.53,0,0,1,565.77,212.16Z"/><path class="cls-25" d="M577.78,0a9.52,9.52,0,0,0-9.53,9.52v96.34A4.15,4.15,0,0,1,561,108.6a149.33,149.33,0,0,0-111.68-50c-65.41,0-120.17,38.57-140.25,95.75-1.57,4.47-5.86,13.84-10.6,13.94-4.86-.1-9.3-9.28-11.2-13.76-22.52-52.89-75.36-88.27-137.48-88.27A149.77,149.77,0,0,0,0,219.61C1.91,299.06,66.7,363.85,146.15,365.73c36.3.86,73.87-14.18,100.36-35a10.81,10.81,0,0,1,4.43-2.2c7.2-1.5,6.78,7.34,7.31,14,.05.58.13,56.85.13,84.18,0,.05,29.83,0,29.83,0a.11.11,0,0,0,.11-.11v-5.73c0-47.46-.93-161.95-.93-161.95s-18.78-36.33-20.9-36.9c0,0,.22,11.28.06,11.76-.53,1.52-4.14,14.19-5.82,18.18-.33.77-.64,1.54-.91,2.33a116.56,116.56,0,0,1-114.35,78.16c-61.59-2.22-111.27-53-112.22-114.63A116.53,116.53,0,0,1,149.77,99.48c1.35,0,2.69,0,4,.07,40.36,1.37,76.77,24.69,96.5,59.92L297.93,242h0l19.44,37.27c.35.65.72,1.28,1.08,1.93l1.8,3.21,0,0A149.67,149.67,0,0,0,454,358c81.08-2.48,144.94-70.28,145.08-151.4,0-5.21,0-10.26,0-15.46V0Zm19.34,191.18c0,2.88,0,5.72,0,8.56,0,2.29,0,4.58,0,6.89a150.21,150.21,0,0,1-41.64,103.82A145.68,145.68,0,0,1,453.93,356c-1.54,0-3.09.07-4.62.07h0A147.69,147.69,0,0,1,322,283.37l-.92-1.55-1.3-2.32-.66-1.18-19.42-37.24L252,158.47c-20.27-36.2-57.88-59.55-98.16-60.92-1.36,0-2.74-.07-4.1-.07a118.53,118.53,0,0,0-4.37,237c1.45.06,2.92.08,4.37.08A118.62,118.62,0,0,0,261.71,255c.23-.65.5-1.35.86-2.2,1.26-3,3.51-10.49,4.85-15,.47-1.59.88-2.95,1-3.34s.21-.61.15-6c4.29,7.23,11.65,21,16.8,31,.08,9.28.93,115.77.93,161.46v3.84H281.1c-12.61,0-18.24,0-20.72,0,0-24.6-.08-81.63-.14-82.36s-.1-1.55-.15-2.34c-.35-5.76-.84-13.64-7.64-13.64a9.47,9.47,0,0,0-1.92.21,12.83,12.83,0,0,0-5.26,2.58c-27.57,21.68-63.52,34.61-96.16,34.61-1,0-2,0-2.92,0a147.77,147.77,0,0,1,3.58-295.49,150.89,150.89,0,0,1,82.5,24,140.88,140.88,0,0,1,53.14,63.07c4.19,9.86,8.57,14.9,13,15,6.86-.14,11.64-12.76,12.53-15.29,20.14-57.35,74.45-94.41,138.36-94.41a148,148,0,0,1,110.19,49.35,6.15,6.15,0,0,0,10.76-4.07V9.52A7.54,7.54,0,0,1,577.78,2h19.34Z"/><path class="cls-26" d="M449.3,89.82c-1.29,0-2.58,0-3.88.06a118.53,118.53,0,0,0,3.88,237c1.29,0,2.58,0,3.88-.06a118.53,118.53,0,0,0-3.88-237ZM565.77,212.16c-1.95,61-51.64,110.71-112.66,112.65A116.53,116.53,0,0,1,332.83,204.53c1.95-61,51.64-110.7,112.66-112.65A116.53,116.53,0,0,1,565.77,212.16Z"/><path class="cls-27" d="M577.78,0a9.52,9.52,0,0,0-9.53,9.52v96.34A4.15,4.15,0,0,1,561,108.6a149.33,149.33,0,0,0-111.68-50c-65.41,0-120.17,38.57-140.25,95.75-1.57,4.47-5.86,13.84-10.6,13.94-4.86-.1-9.3-9.28-11.2-13.76-22.52-52.89-75.36-88.27-137.48-88.27A149.77,149.77,0,0,0,0,219.61C1.91,299.06,66.7,363.85,146.15,365.73c36.3.86,73.87-14.18,100.36-35a10.81,10.81,0,0,1,4.43-2.2c7.2-1.5,6.78,7.34,7.31,14,.05.58.13,56.85.13,84.18,0,.05,29.83,0,29.83,0a.11.11,0,0,0,.11-.11v-5.73c0-47.46-.93-161.95-.93-161.95s-18.78-36.33-20.9-36.9c0,0,.22,11.28.06,11.76-.53,1.52-4.14,14.19-5.82,18.18-.33.77-.64,1.54-.91,2.33a116.56,116.56,0,0,1-114.35,78.16c-61.59-2.22-111.27-53-112.22-114.63A116.53,116.53,0,0,1,149.77,99.48c1.35,0,2.69,0,4,.07,40.36,1.37,76.77,24.69,96.5,59.92L297.93,242h0l19.44,37.27c.35.65.72,1.28,1.08,1.93l1.8,3.21,0,0A149.67,149.67,0,0,0,454,358c81.08-2.48,144.94-70.28,145.08-151.4,0-5.21,0-10.26,0-15.46V0Zm19.34,191.18c0,2.88,0,5.72,0,8.56,0,2.29,0,4.58,0,6.89a150.21,150.21,0,0,1-41.64,103.82A145.68,145.68,0,0,1,453.93,356c-1.54,0-3.09.07-4.62.07h0A147.69,147.69,0,0,1,322,283.37l-.92-1.55-1.3-2.32-.66-1.18-19.42-37.24L252,158.47c-20.27-36.2-57.88-59.55-98.16-60.92-1.36,0-2.74-.07-4.1-.07a118.53,118.53,0,0,0-4.37,237c1.45.06,2.92.08,4.37.08A118.62,118.62,0,0,0,261.71,255c.23-.65.5-1.35.86-2.2,1.26-3,3.51-10.49,4.85-15,.47-1.59.88-2.95,1-3.34s.21-.61.15-6c4.29,7.23,11.65,21,16.8,31,.08,9.28.93,115.77.93,161.46v3.84H281.1c-12.61,0-18.24,0-20.72,0,0-24.6-.08-81.63-.14-82.36s-.1-1.55-.15-2.34c-.35-5.76-.84-13.64-7.64-13.64a9.47,9.47,0,0,0-1.92.21,12.83,12.83,0,0,0-5.26,2.58c-27.57,21.68-63.52,34.61-96.16,34.61-1,0-2,0-2.92,0a147.77,147.77,0,0,1,3.58-295.49,150.89,150.89,0,0,1,82.5,24,140.88,140.88,0,0,1,53.14,63.07c4.19,9.86,8.57,14.9,13,15,6.86-.14,11.64-12.76,12.53-15.29,20.14-57.35,74.45-94.41,138.36-94.41a148,148,0,0,1,110.19,49.35,6.15,6.15,0,0,0,10.76-4.07V9.52A7.54,7.54,0,0,1,577.78,2h19.34Z"/><path class="cls-28" d="M449.3,89.82c-1.29,0-2.58,0-3.88.06a118.53,118.53,0,0,0,3.88,237c1.29,0,2.58,0,3.88-.06a118.53,118.53,0,0,0-3.88-237ZM565.77,212.16c-1.95,61-51.64,110.71-112.66,112.65A116.53,116.53,0,0,1,332.83,204.53c1.95-61,51.64-110.7,112.66-112.65A116.53,116.53,0,0,1,565.77,212.16Z"/><path class="cls-29" d="M577.78,0a9.52,9.52,0,0,0-9.53,9.52v96.34A4.15,4.15,0,0,1,561,108.6a149.33,149.33,0,0,0-111.68-50c-65.41,0-120.17,38.57-140.25,95.75-1.57,4.47-5.86,13.84-10.6,13.94-4.86-.1-9.3-9.28-11.2-13.76-22.52-52.89-75.36-88.27-137.48-88.27A149.77,149.77,0,0,0,0,219.61C1.91,299.06,66.7,363.85,146.15,365.73c36.3.86,73.87-14.18,100.36-35a10.81,10.81,0,0,1,4.43-2.2c7.2-1.5,6.78,7.34,7.31,14,.05.58.13,56.85.13,84.18,0,.05,29.83,0,29.83,0a.11.11,0,0,0,.11-.11v-5.73c0-47.46-.93-161.95-.93-161.95s-18.78-36.33-20.9-36.9c0,0,.22,11.28.06,11.76-.53,1.52-4.14,14.19-5.82,18.18-.33.77-.64,1.54-.91,2.33a116.56,116.56,0,0,1-114.35,78.16c-61.59-2.22-111.27-53-112.22-114.63A116.53,116.53,0,0,1,149.77,99.48c1.35,0,2.69,0,4,.07,40.36,1.37,76.77,24.69,96.5,59.92L297.93,242h0l19.44,37.27c.35.65.72,1.28,1.08,1.93l1.8,3.21,0,0A149.67,149.67,0,0,0,454,358c81.08-2.48,144.94-70.28,145.08-151.4,0-5.21,0-10.26,0-15.46V0Zm19.34,191.18c0,2.88,0,5.72,0,8.56,0,2.29,0,4.58,0,6.89a150.21,150.21,0,0,1-41.64,103.82A145.68,145.68,0,0,1,453.93,356c-1.54,0-3.09.07-4.62.07h0A147.69,147.69,0,0,1,322,283.37l-.92-1.55-1.3-2.32-.66-1.18-19.42-37.24L252,158.47c-20.27-36.2-57.88-59.55-98.16-60.92-1.36,0-2.74-.07-4.1-.07a118.53,118.53,0,0,0-4.37,237c1.45.06,2.92.08,4.37.08A118.62,118.62,0,0,0,261.71,255c.23-.65.5-1.35.86-2.2,1.26-3,3.51-10.49,4.85-15,.47-1.59.88-2.95,1-3.34s.21-.61.15-6c4.29,7.23,11.65,21,16.8,31,.08,9.28.93,115.77.93,161.46v3.84H281.1c-12.61,0-18.24,0-20.72,0,0-24.6-.08-81.63-.14-82.36s-.1-1.55-.15-2.34c-.35-5.76-.84-13.64-7.64-13.64a9.47,9.47,0,0,0-1.92.21,12.83,12.83,0,0,0-5.26,2.58c-27.57,21.68-63.52,34.61-96.16,34.61-1,0-2,0-2.92,0a147.77,147.77,0,0,1,3.58-295.49,150.89,150.89,0,0,1,82.5,24,140.88,140.88,0,0,1,53.14,63.07c4.19,9.86,8.57,14.9,13,15,6.86-.14,11.64-12.76,12.53-15.29,20.14-57.35,74.45-94.41,138.36-94.41a148,148,0,0,1,110.19,49.35,6.15,6.15,0,0,0,10.76-4.07V9.52A7.54,7.54,0,0,1,577.78,2h19.34Z"/><path class="cls-30" d="M449.3,89.82c-1.29,0-2.58,0-3.88.06a118.53,118.53,0,0,0,3.88,237c1.29,0,2.58,0,3.88-.06a118.53,118.53,0,0,0-3.88-237ZM565.77,212.16c-1.95,61-51.64,110.71-112.66,112.65A116.53,116.53,0,0,1,332.83,204.53c1.95-61,51.64-110.7,112.66-112.65A116.53,116.53,0,0,1,565.77,212.16Z"/><path class="cls-31" d="M577.78,0a9.52,9.52,0,0,0-9.53,9.52v96.34A4.15,4.15,0,0,1,561,108.6a149.33,149.33,0,0,0-111.68-50c-65.41,0-120.17,38.57-140.25,95.75-1.57,4.47-5.86,13.84-10.6,13.94-4.86-.1-9.3-9.28-11.2-13.76-22.52-52.89-75.36-88.27-137.48-88.27A149.77,149.77,0,0,0,0,219.61C1.91,299.06,66.7,363.85,146.15,365.73c36.3.86,73.87-14.18,100.36-35a10.81,10.81,0,0,1,4.43-2.2c7.2-1.5,6.78,7.34,7.31,14,.05.58.13,56.85.13,84.18,0,.05,29.83,0,29.83,0a.11.11,0,0,0,.11-.11v-5.73c0-47.46-.93-161.95-.93-161.95s-18.78-36.33-20.9-36.9c0,0,.22,11.28.06,11.76-.53,1.52-4.14,14.19-5.82,18.18-.33.77-.64,1.54-.91,2.33a116.56,116.56,0,0,1-114.35,78.16c-61.59-2.22-111.27-53-112.22-114.63A116.53,116.53,0,0,1,149.77,99.48c1.35,0,2.69,0,4,.07,40.36,1.37,76.77,24.69,96.5,59.92L297.93,242h0l19.44,37.27c.35.65.72,1.28,1.08,1.93l1.8,3.21,0,0A149.67,149.67,0,0,0,454,358c81.08-2.48,144.94-70.28,145.08-151.4,0-5.21,0-10.26,0-15.46V0Zm19.34,191.18c0,2.88,0,5.72,0,8.56,0,2.29,0,4.58,0,6.89a150.21,150.21,0,0,1-41.64,103.82A145.68,145.68,0,0,1,453.93,356c-1.54,0-3.09.07-4.62.07h0A147.69,147.69,0,0,1,322,283.37l-.92-1.55-1.3-2.32-.66-1.18-19.42-37.24L252,158.47c-20.27-36.2-57.88-59.55-98.16-60.92-1.36,0-2.74-.07-4.1-.07a118.53,118.53,0,0,0-4.37,237c1.45.06,2.92.08,4.37.08A118.62,118.62,0,0,0,261.71,255c.23-.65.5-1.35.86-2.2,1.26-3,3.51-10.49,4.85-15,.47-1.59.88-2.95,1-3.34s.21-.61.15-6c4.29,7.23,11.65,21,16.8,31,.08,9.28.93,115.77.93,161.46v3.84H281.1c-12.61,0-18.24,0-20.72,0,0-24.6-.08-81.63-.14-82.36s-.1-1.55-.15-2.34c-.35-5.76-.84-13.64-7.64-13.64a9.47,9.47,0,0,0-1.92.21,12.83,12.83,0,0,0-5.26,2.58c-27.57,21.68-63.52,34.61-96.16,34.61-1,0-2,0-2.92,0a147.77,147.77,0,0,1,3.58-295.49,150.89,150.89,0,0,1,82.5,24,140.88,140.88,0,0,1,53.14,63.07c4.19,9.86,8.57,14.9,13,15,6.86-.14,11.64-12.76,12.53-15.29,20.14-57.35,74.45-94.41,138.36-94.41a148,148,0,0,1,110.19,49.35,6.15,6.15,0,0,0,10.76-4.07V9.52A7.54,7.54,0,0,1,577.78,2h19.34Z"/><path class="cls-32" d="M449.3,89.82c-1.29,0-2.58,0-3.88.06a118.53,118.53,0,0,0,3.88,237c1.29,0,2.58,0,3.88-.06a118.53,118.53,0,0,0-3.88-237ZM565.77,212.16c-1.95,61-51.64,110.71-112.66,112.65A116.53,116.53,0,0,1,332.83,204.53c1.95-61,51.64-110.7,112.66-112.65A116.53,116.53,0,0,1,565.77,212.16Z"/><path class="cls-33" d="M577.78,0a9.52,9.52,0,0,0-9.53,9.52v96.34A4.15,4.15,0,0,1,561,108.6a149.33,149.33,0,0,0-111.68-50c-65.41,0-120.17,38.57-140.25,95.75-1.57,4.47-5.86,13.84-10.6,13.94-4.86-.1-9.3-9.28-11.2-13.76-22.52-52.89-75.36-88.27-137.48-88.27A149.77,149.77,0,0,0,0,219.61C1.91,299.06,66.7,363.85,146.15,365.73c36.3.86,73.87-14.18,100.36-35a10.81,10.81,0,0,1,4.43-2.2c7.2-1.5,6.78,7.34,7.31,14,.05.58.13,56.85.13,84.18,0,.05,29.83,0,29.83,0a.11.11,0,0,0,.11-.11v-5.73c0-47.46-.93-161.95-.93-161.95s-18.78-36.33-20.9-36.9c0,0,.22,11.28.06,11.76-.53,1.52-4.14,14.19-5.82,18.18-.33.77-.64,1.54-.91,2.33a116.56,116.56,0,0,1-114.35,78.16c-61.59-2.22-111.27-53-112.22-114.63A116.53,116.53,0,0,1,149.77,99.48c1.35,0,2.69,0,4,.07,40.36,1.37,76.77,24.69,96.5,59.92L297.93,242h0l19.44,37.27c.35.65.72,1.28,1.08,1.93l1.8,3.21,0,0A149.67,149.67,0,0,0,454,358c81.08-2.48,144.94-70.28,145.08-151.4,0-5.21,0-10.26,0-15.46V0Zm19.34,191.18c0,2.88,0,5.72,0,8.56,0,2.29,0,4.58,0,6.89a150.21,150.21,0,0,1-41.64,103.82A145.68,145.68,0,0,1,453.93,356c-1.54,0-3.09.07-4.62.07h0A147.69,147.69,0,0,1,322,283.37l-.92-1.55-1.3-2.32-.66-1.18-19.42-37.24L252,158.47c-20.27-36.2-57.88-59.55-98.16-60.92-1.36,0-2.74-.07-4.1-.07a118.53,118.53,0,0,0-4.37,237c1.45.06,2.92.08,4.37.08A118.62,118.62,0,0,0,261.71,255c.23-.65.5-1.35.86-2.2,1.26-3,3.51-10.49,4.85-15,.47-1.59.88-2.95,1-3.34s.21-.61.15-6c4.29,7.23,11.65,21,16.8,31,.08,9.28.93,115.77.93,161.46v3.84H281.1c-12.61,0-18.24,0-20.72,0,0-24.6-.08-81.63-.14-82.36s-.1-1.55-.15-2.34c-.35-5.76-.84-13.64-7.64-13.64a9.47,9.47,0,0,0-1.92.21,12.83,12.83,0,0,0-5.26,2.58c-27.57,21.68-63.52,34.61-96.16,34.61-1,0-2,0-2.92,0a147.77,147.77,0,0,1,3.58-295.49,150.89,150.89,0,0,1,82.5,24,140.88,140.88,0,0,1,53.14,63.07c4.19,9.86,8.57,14.9,13,15,6.86-.14,11.64-12.76,12.53-15.29,20.14-57.35,74.45-94.41,138.36-94.41a148,148,0,0,1,110.19,49.35,6.15,6.15,0,0,0,10.76-4.07V9.52A7.54,7.54,0,0,1,577.78,2h19.34Z"/><path class="cls-34" d="M449.3,89.82c-1.29,0-2.58,0-3.88.06a118.53,118.53,0,0,0,3.88,237c1.29,0,2.58,0,3.88-.06a118.53,118.53,0,0,0-3.88-237ZM565.77,212.16c-1.95,61-51.64,110.71-112.66,112.65A116.53,116.53,0,0,1,332.83,204.53c1.95-61,51.64-110.7,112.66-112.65A116.53,116.53,0,0,1,565.77,212.16Z"/><ellipse class="cls-2" cx="449.3" cy="208.35" rx="116.48" ry="116.57" transform="translate(-15.73 378.73) rotate(-45)"/><path class="cls-2" d="M2,219.56A148.32,148.32,0,0,0,146.19,363.73c1,0,1.95,0,2.92,0,32.64,0,68.59-12.93,96.16-34.61a12.83,12.83,0,0,1,5.26-2.58,9.47,9.47,0,0,1,1.92-.21c6.8,0,7.29,7.88,7.64,13.64.05.79.09,1.58.15,2.34s.13,57.76.14,82.36c2.48,0,8.11,0,20.72,0h5.22v-3.84c0-45.69-.85-152.18-.93-161.46-5.15-10-12.51-23.72-16.8-31,.06,5.36,0,5.67-.15,6s-.55,1.75-1,3.34c-1.34,4.48-3.59,12-4.85,15-.36.85-.63,1.55-.86,2.2a118.62,118.62,0,0,1-111.94,79.58c-1.45,0-2.92,0-4.37-.08A118.53,118.53,0,0,1,65.31,132.84c2.27-2.31,4.63-4.5,7-6.6C47.88,143.76,26,146.38,19.16,146.75A147.1,147.1,0,0,0,2,219.56Z"/><path class="cls-2" d="M81.46,119.1h0a117.61,117.61,0,0,1,68.31-21.62c1.36,0,2.74,0,4.1.07,40.28,1.37,77.89,24.72,98.16,60.92l47.68,82.61,19.42,37.24.66,1.18,1.3,2.32.92,1.55A147.69,147.69,0,0,0,449.3,356.11h0c1.53,0,3.08,0,4.62-.07a145.68,145.68,0,0,0,101.5-45.59,150.21,150.21,0,0,0,41.64-103.82c0-2.31,0-4.6,0-6.89,0-2.84,0-5.68,0-8.56V2H577.78a7.54,7.54,0,0,0-7.53,7.52v96.34a6.15,6.15,0,0,1-10.76,4.07A148,148,0,0,0,449.3,60.58c-63.91,0-118.22,37.06-138.36,94.41-.89,2.53-5.67,15.15-12.53,15.29-4.43-.09-8.81-5.13-13-15a140.88,140.88,0,0,0-53.14-63.07,150.89,150.89,0,0,0-82.5-24q-5.42,0-10.74.38C125,88.65,113.65,91.52,81.46,119.1Zm249.37,85.37A118.68,118.68,0,0,1,445.42,89.88c1.3,0,2.59-.06,3.88-.06a118.53,118.53,0,0,1,3.88,237c-1.3,0-2.59.06-3.88.06a118.53,118.53,0,0,1-118.47-122.4Z"/><path class="cls-35" d="M577.78,0a9.52,9.52,0,0,0-9.53,9.52v96.34A4.15,4.15,0,0,1,561,108.6a149.33,149.33,0,0,0-111.68-50c-65.41,0-120.17,38.57-140.25,95.75-1.57,4.47-5.86,13.84-10.6,13.94-4.86-.1-9.3-9.28-11.2-13.76-22.52-52.89-75.36-88.27-137.48-88.27-3.13,0-6.23.11-9.31.29-.48.72-1,1.42-1.43,2.09q5.33-.37,10.74-.38a150.89,150.89,0,0,1,82.5,24,140.88,140.88,0,0,1,53.14,63.07c4.19,9.86,8.57,14.9,13,15,6.86-.14,11.64-12.76,12.53-15.29,20.14-57.35,74.45-94.41,138.36-94.41a148,148,0,0,1,110.19,49.35,6.15,6.15,0,0,0,10.76-4.07V9.52A7.54,7.54,0,0,1,577.78,2h19.34V191.18c0,2.88,0,5.72,0,8.56,0,2.29,0,4.58,0,6.89a150.21,150.21,0,0,1-41.64,103.82A145.68,145.68,0,0,1,453.93,356c-1.54,0-3.09.07-4.62.07h0A147.69,147.69,0,0,1,322,283.37l-.92-1.55-1.3-2.32-.66-1.18-19.42-37.24L252,158.47c-20.27-36.2-57.88-59.55-98.16-60.92-1.36,0-2.74-.07-4.1-.07A117.61,117.61,0,0,0,81.46,119.1c-3.06,2.62-6.1,5-9.1,7.14-2.42,2.1-4.78,4.29-7,6.6A118.53,118.53,0,0,0,145.4,334.45c1.45.06,2.92.08,4.37.08A118.62,118.62,0,0,0,261.71,255c.23-.65.5-1.35.86-2.2,1.26-3,3.51-10.49,4.85-15,.47-1.59.88-2.95,1-3.34s.21-.61.15-6c4.29,7.23,11.65,21,16.8,31,.08,9.28.93,115.77.93,161.46v3.84H281.1c-12.61,0-18.24,0-20.72,0,0-24.6-.08-81.63-.14-82.36s-.1-1.55-.15-2.34c-.35-5.76-.84-13.64-7.64-13.64a9.47,9.47,0,0,0-1.92.21,12.83,12.83,0,0,0-5.26,2.58c-27.57,21.68-63.52,34.61-96.16,34.61-1,0-2,0-2.92,0a147.87,147.87,0,0,1-127-217c-1.46.08-2.25.07-2.25.07A149.16,149.16,0,0,0,0,219.61C1.91,299.06,66.7,363.85,146.15,365.73c36.3.86,73.87-14.18,100.36-35a10.81,10.81,0,0,1,4.43-2.2c7.2-1.5,6.78,7.34,7.31,14,.05.58.13,56.85.13,84.18,0,.05,29.83,0,29.83,0a.11.11,0,0,0,.11-.11v-5.73c0-47.46-.93-161.95-.93-161.95s-18.78-36.33-20.9-36.9c0,0,.22,11.28.06,11.76-.53,1.52-4.14,14.19-5.82,18.18-.33.77-.64,1.54-.91,2.33a116.56,116.56,0,0,1-114.35,78.16c-61.59-2.22-111.27-53-112.22-114.63A116.53,116.53,0,0,1,149.77,99.48c1.35,0,2.69,0,4,.07,40.36,1.37,76.77,24.69,96.5,59.92L297.93,242h0l19.44,37.27c.35.65.72,1.28,1.08,1.93l1.8,3.21,0,0A149.67,149.67,0,0,0,454,358c81.08-2.48,144.94-70.28,145.08-151.4,0-5.21,0-10.26,0-15.46V0Z"/><path class="cls-36" d="M449.3,326.87c1.29,0,2.58,0,3.88-.06a118.53,118.53,0,0,0-3.88-237c-1.29,0-2.58,0-3.88.06a118.53,118.53,0,0,0,3.88,237ZM332.83,204.53c1.95-61,51.64-110.7,112.66-112.65A116.53,116.53,0,0,1,565.77,212.16c-1.95,61-51.64,110.71-112.66,112.65A116.53,116.53,0,0,1,332.83,204.53Z"/><path class="cls-37" d="M17,145.74c7.16-18.14,61.71-37.32,61.71-37.32S114,77.05,136.84,67.61a146.45,146.45,0,0,0-95,44.14A148.51,148.51,0,0,0,17,145.74Z"/><path class="cls-35" d="M19.16,146.75a148.39,148.39,0,0,1,24.89-34,146.54,146.54,0,0,1,95-44.14c.47-.67.95-1.37,1.43-2.09A149.77,149.77,0,0,0,16.91,146.82S17.7,146.83,19.16,146.75Z"/><path class="cls-38" d="M19.16,146.75a148.39,148.39,0,0,1,24.89-34,146.54,146.54,0,0,1,95-44.14c.47-.67.95-1.37,1.43-2.09A149.77,149.77,0,0,0,16.91,146.82S17.7,146.83,19.16,146.75Z"/><path class="cls-39" d="M577.78,0a9.52,9.52,0,0,0-9.53,9.52V25c.18-1.84,7.44-10.11,14.38-10.66,7.65-.61,14.28,12.08,15.28,11.34L599.12,0Z"/></g></g></svg>
